<?xml version="1.0" encoding="UTF-8"?> <svg xmlns="http://www.w3.org/2000/svg" viewBox="0 0 470 300" width="470" height="300"><defs><style>.cls-1{isolation:isolate;}.cls-2{fill:none;}.cls-3{fill:#fff;}.cls-4{fill:#1b5ca0;}.cls-5{fill:#999;}.cls-6{fill:#f58b39;}.cls-7{fill:#4bbc99;}.cls-8{fill:#93c1bf;}.cls-9{fill:#00a5a5;}.cls-10{fill:#1eadcd;}.cls-11{fill:#5796ac;}.cls-12{fill:#08213f;}.cls-13{fill:#e1e1e1;}.cls-14{fill:#aeaeaf;}.cls-15{fill:#0592a8;}.cls-16{fill:#707171;}.cls-17{fill:#ffcd37;}.cls-18,.cls-20{fill:#050505;}.cls-18{opacity:0.05;}.cls-19{fill:#f3bf22;}.cls-20{opacity:0.2;}.cls-21{fill:#fde350;}.cls-22{fill:#2f495e;}.cls-23{fill:#3f5e73;}.cls-24{fill:#bacebd;}.cls-25{fill:#789199;}.cls-26{fill:#ed1c4c;}.cls-27{fill:#353535;}.cls-28{fill:#fddb00;}.cls-29{fill:#eab120;}.cls-30,.cls-31{fill:#fcbf10;}.cls-31{mix-blend-mode:overlay;}.cls-32{fill:#bf8f2d;}.cls-33{fill:#7fc4ec;}.cls-34{fill:#96d9f7;}.cls-35{fill:#bde6fa;}.cls-36{fill:#e3f4fc;}.cls-37{fill:#fbae17;}</style></defs><g class="cls-1"><g id="Слой_2" data-name="Слой 2"><rect class="cls-2" width="470" height="300"></rect><path class="cls-3" d="M344,229.53H468a0,0,0,0,1,0,0v63.65a3.39,3.39,0,0,1-3.39,3.39H347.38a3.39,3.39,0,0,1-3.39-3.39V229.53A0,0,0,0,1,344,229.53Z"></path><path class="cls-4" d="M363.34,239.33H354a.82.82,0,0,1-.81-.82h0a.82.82,0,0,1,.81-.82h9.33a.82.82,0,0,1,.81.82h0A.82.82,0,0,1,363.34,239.33Z"></path><path class="cls-4" d="M378.23,239.33h-9.32a.82.82,0,0,1-.82-.82h0a.82.82,0,0,1,.82-.82h9.32a.82.82,0,0,1,.82.82h0A.82.82,0,0,1,378.23,239.33Z"></path><path class="cls-4" d="M394.32,239.33H385a.82.82,0,0,1-.81-.82h0a.82.82,0,0,1,.81-.82h9.33a.82.82,0,0,1,.81.82h0A.82.82,0,0,1,394.32,239.33Z"></path><path class="cls-4" d="M409.92,239.33h-9.33a.82.82,0,0,1-.81-.82h0a.82.82,0,0,1,.81-.82h9.33a.82.82,0,0,1,.81.82h0A.82.82,0,0,1,409.92,239.33Z"></path><path class="cls-4" d="M425.3,239.33H416a.82.82,0,0,1-.81-.82h0a.82.82,0,0,1,.81-.82h9.33a.82.82,0,0,1,.81.82h0A.82.82,0,0,1,425.3,239.33Z"></path><path class="cls-4" d="M441.6,239.33h-9.32a.82.82,0,0,1-.82-.82h0a.82.82,0,0,1,.82-.82h9.32a.82.82,0,0,1,.82.82h0A.82.82,0,0,1,441.6,239.33Z"></path><path class="cls-4" d="M457.46,239.33h-9.32a.82.82,0,0,1-.82-.82h0a.82.82,0,0,1,.82-.82h9.32a.82.82,0,0,1,.82.82h0A.82.82,0,0,1,457.46,239.33Z"></path><rect class="cls-5" x="351.13" y="243.9" width="110.26" height="0.13"></rect><rect class="cls-5" x="351.13" y="255.31" width="110.26" height="0.13"></rect><rect class="cls-5" x="351.13" y="266.72" width="110.26" height="0.13"></rect><rect class="cls-5" x="351.13" y="278.13" width="110.26" height="0.13"></rect><rect class="cls-5" x="351.13" y="289.55" width="110.26" height="0.13"></rect><rect class="cls-5" x="351.07" y="243.9" width="0.13" height="45.78"></rect><rect class="cls-5" x="366.18" y="243.9" width="0.13" height="45.78"></rect><rect class="cls-5" x="397.24" y="243.9" width="0.13" height="45.78"></rect><rect class="cls-5" x="381.05" y="243.9" width="0.13" height="45.78"></rect><rect class="cls-5" x="413.07" y="243.9" width="0.13" height="45.78"></rect><rect class="cls-5" x="429.29" y="243.9" width="0.13" height="45.78"></rect><rect class="cls-5" x="445.1" y="243.9" width="0.13" height="45.78"></rect><rect class="cls-5" x="461.33" y="243.9" width="0.13" height="45.78"></rect><path class="cls-6" d="M409.28,265.53a.65.65,0,0,1-.48-.2l-8.06-8.05a.69.69,0,0,1,1-1l8.06,8.05a.68.68,0,0,1,0,1A.67.67,0,0,1,409.28,265.53Z"></path><path class="cls-6" d="M401.23,265.53a.67.67,0,0,1-.49-.2.68.68,0,0,1,0-1l8.06-8.05a.69.69,0,0,1,1,1l-8.06,8.05A.65.65,0,0,1,401.23,265.53Z"></path><path class="cls-7" d="M435.17,275.82l-3.33-4.06a.68.68,0,0,1,.09-1,.69.69,0,0,1,1,.09l2.36,2.89,5.54-5.54a.69.69,0,0,1,1,1Z"></path><path class="cls-8" d="M390.25,271.55H372a.76.76,0,0,1-.76-.76h0A.76.76,0,0,1,372,270h18.28a.76.76,0,0,1,.76.76h0A.76.76,0,0,1,390.25,271.55Z"></path><path class="cls-8" d="M390.25,274H372a.77.77,0,0,1-.76-.77h0a.77.77,0,0,1,.76-.76h18.28a.77.77,0,0,1,.76.76h0A.77.77,0,0,1,390.25,274Z"></path><path class="cls-8" d="M390.25,276.44H372a.76.76,0,0,1-.76-.76h0a.76.76,0,0,1,.76-.76h18.28a.76.76,0,0,1,.76.76h0A.76.76,0,0,1,390.25,276.44Z"></path><path class="cls-8" d="M457.93,283.93H447.65a.77.77,0,0,1-.76-.77h0a.77.77,0,0,1,.76-.76h10.28a.77.77,0,0,1,.76.76h0A.77.77,0,0,1,457.93,283.93Z"></path><rect class="cls-8" x="446.89" y="284.85" width="11.8" height="1.52" rx="0.76"></rect><rect class="cls-9" x="430.7" y="246.66" width="13.28" height="7.15" rx="1.36"></rect><path class="cls-10" d="M462.13,215.8H349.84a5.86,5.86,0,0,0-5.86,5.86v7.87H468v-7.87A5.86,5.86,0,0,0,462.13,215.8ZM363.81,227a4.31,4.31,0,1,1,4.3-4.31A4.31,4.31,0,0,1,363.81,227Zm41.45,0a4.31,4.31,0,1,1,4.3-4.31A4.31,4.31,0,0,1,405.26,227Zm41.44,0a4.31,4.31,0,1,1,4.3-4.31A4.3,4.3,0,0,1,446.7,227Z"></path><rect class="cls-11" x="343.98" y="229.53" width="124.01" height="0.65"></rect><rect class="cls-12" x="361.39" y="208.6" width="4.79" height="15.07" rx="2.39"></rect><rect class="cls-12" x="402.83" y="208.6" width="4.79" height="15.07" rx="2.39"></rect><rect class="cls-12" x="444.27" y="208.6" width="4.79" height="15.07" rx="2.39"></rect><rect class="cls-13" x="81.97" y="98.99" width="277.28" height="190.52" rx="9.9"></rect><rect class="cls-14" x="50.16" y="285.05" width="342" height="6.13"></rect><path class="cls-13" d="M392.16,291.19s-8.17,5.55-23.69,5.55H73.86c-1.72,0-3.35-.07-4.89-.19h0c-12.34-1-18.8-5.36-18.8-5.36Z"></path><rect class="cls-15" x="91.83" y="109.8" width="259.09" height="163.31" rx="1.36"></rect><path class="cls-16" d="M249.84,285.05a6,6,0,0,1-5.87,4.89H199.16a6,6,0,0,1-5.87-4.89Z"></path><rect class="cls-10" x="327.5" y="3.26" width="81.85" height="39.39" rx="18.68" transform="translate(736.85 45.91) rotate(180)"></rect><path class="cls-10" d="M361.62,42.65l-11.45,8.94a.79.79,0,0,1-1.21-.93l3.35-8Z"></path><circle class="cls-3" cx="350.35" cy="22.18" r="5.59"></circle><circle class="cls-3" cx="367.96" cy="22.96" r="5.59"></circle><circle class="cls-3" cx="385.56" cy="23.73" r="5.59"></circle><path class="cls-17" d="M108,133.29v38.79a1.2,1.2,0,0,1-.4.9,1.23,1.23,0,0,1-.83.32H40.27a1.21,1.21,0,0,1-.89-.39,1.17,1.17,0,0,1-.33-.83V133.29a1.22,1.22,0,0,1,1.22-1.22h66.48A1.23,1.23,0,0,1,108,133.29Z"></path><path class="cls-18" d="M107.58,173a1.23,1.23,0,0,1-.83.32H40.27a1.21,1.21,0,0,1-.89-.39l34.1-23.25Z"></path><path class="cls-19" d="M107.58,173a1.23,1.23,0,0,1-.83.32H40.27a1.21,1.21,0,0,1-.89-.39l34.13-22.67Z"></path><path class="cls-20" d="M107.58,132.39a1.23,1.23,0,0,0-.83-.32H40.27a1.21,1.21,0,0,0-.89.39L71,157.13a4.22,4.22,0,0,0,5.08,0Z"></path><path class="cls-21" d="M107.58,132.39a1.23,1.23,0,0,0-.83-.32H40.27a1.21,1.21,0,0,0-.89.39L71,156.27a4.22,4.22,0,0,0,5.08,0Z"></path><rect class="cls-22" x="329.18" y="117.58" width="65.69" height="80.11" rx="4.09"></rect><path class="cls-23" d="M394.88,121.67v19.66h-65.7V121.67a4.1,4.1,0,0,1,4.09-4.09h57.52A4.1,4.1,0,0,1,394.88,121.67Z"></path><rect class="cls-24" x="333.91" y="122.26" width="56.24" height="14.58" rx="1.65"></rect><rect class="cls-25" x="333.91" y="144.85" width="12.18" height="9.01" rx="1.7"></rect><rect class="cls-25" x="348.49" y="144.85" width="12.18" height="9.01" rx="1.7"></rect><rect class="cls-25" x="363.06" y="144.85" width="12.18" height="9.01" rx="1.7"></rect><rect class="cls-25" x="377.64" y="144.85" width="12.18" height="9.01" rx="1.7"></rect><rect class="cls-25" x="333.91" y="157.39" width="12.18" height="9.01" rx="1.7"></rect><rect class="cls-25" x="348.49" y="157.39" width="12.18" height="9.01" rx="1.7"></rect><rect class="cls-25" x="363.06" y="157.39" width="12.18" height="9.01" rx="1.7"></rect><rect class="cls-25" x="377.64" y="157.39" width="12.18" height="9.01" rx="1.7"></rect><rect class="cls-25" x="333.91" y="169.93" width="12.18" height="9.01" rx="1.7"></rect><rect class="cls-25" x="348.49" y="169.93" width="12.18" height="9.01" rx="1.7"></rect><rect class="cls-25" x="363.06" y="169.93" width="12.18" height="9.01" rx="1.7"></rect><rect class="cls-25" x="377.64" y="169.93" width="12.18" height="9.01" rx="1.7"></rect><rect class="cls-25" x="333.91" y="182.47" width="12.18" height="9.01" rx="1.7"></rect><rect class="cls-25" x="348.49" y="182.47" width="12.18" height="9.01" rx="1.7"></rect><rect class="cls-26" x="363.06" y="182.47" width="12.18" height="9.01" rx="1.7"></rect><rect class="cls-25" x="377.64" y="182.47" width="12.18" height="9.01" rx="1.7"></rect><path class="cls-3" d="M339.48,173.11h0l-.74.38-.14-.59,1-.49h.64v4.09h-.74Z"></path><path class="cls-3" d="M341.15,187c0,1.31-.52,2.13-1.49,2.13s-1.45-.85-1.45-2.09.54-2.13,1.49-2.13S341.15,185.74,341.15,187ZM339,187c0,1,.27,1.5.69,1.5s.69-.55.69-1.53-.22-1.51-.69-1.51S339,186,339,187Z"></path><path class="cls-3" d="M353,176.5V176l.48-.45c1-.89,1.41-1.38,1.42-1.92a.64.64,0,0,0-.73-.69,1.46,1.46,0,0,0-.87.34l-.23-.54a2,2,0,0,1,1.26-.43,1.21,1.21,0,0,1,1.34,1.24c0,.72-.51,1.3-1.22,2l-.36.3v0h1.68v.64Z"></path><path class="cls-3" d="M367.89,175.7a2,2,0,0,0,.93.25c.59,0,.83-.33.82-.65,0-.49-.45-.69-.92-.69h-.36V174h.34c.36,0,.81-.16.81-.57s-.2-.51-.65-.51a1.57,1.57,0,0,0-.83.26l-.18-.56a2.21,2.21,0,0,1,1.17-.32c.85,0,1.28.47,1.28,1a1,1,0,0,1-.75,1h0a1,1,0,0,1,.89,1c0,.69-.57,1.24-1.59,1.24a2.17,2.17,0,0,1-1.14-.29Z"></path><path class="cls-3" d="M340,164.05v-1h-1.85v-.5l1.66-2.55h.92v2.46h.52V163h-.52v1Zm0-1.63v-1.11c0-.23,0-.47,0-.71h0c-.13.26-.24.47-.36.69l-.75,1.12H340Z"></path><path class="cls-3" d="M355.59,160.6H354l-.12.82.3,0a1.83,1.83,0,0,1,1,.26,1.17,1.17,0,0,1,.53,1,1.48,1.48,0,0,1-1.65,1.41,2.35,2.35,0,0,1-1.08-.23l.16-.59a2,2,0,0,0,.9.22.79.79,0,0,0,.88-.75c0-.47-.34-.77-1.16-.77a4.39,4.39,0,0,0-.56,0l.27-2.06h2.11Z"></path><path class="cls-3" d="M370.22,160.51a3,3,0,0,0-.4,0,1.45,1.45,0,0,0-1.37,1.19h0a1.18,1.18,0,0,1,.92-.39,1.23,1.23,0,0,1,1.25,1.33,1.41,1.41,0,0,1-1.44,1.45,1.55,1.55,0,0,1-1.54-1.75,2.5,2.5,0,0,1,.71-1.84,2.38,2.38,0,0,1,1.45-.6,1.78,1.78,0,0,1,.39,0Zm-.37,2.19a.71.71,0,0,0-.71-.81.75.75,0,0,0-.66.42.55.55,0,0,0-.05.25c0,.54.27,1,.76,1S369.85,163.19,369.85,162.7Z"></path><path class="cls-3" d="M341.07,147.51v.5l-1.73,3.58h-.81l1.72-3.43h-1.92v-.64Z"></path><path class="cls-3" d="M352.94,150.55a1.14,1.14,0,0,1,.77-1.07v0a1,1,0,0,1-.62-.9,1.21,1.21,0,0,1,1.36-1.12c.88,0,1.28.53,1.28,1a1,1,0,0,1-.63.93h0a1.1,1.1,0,0,1,.78,1c0,.73-.62,1.22-1.49,1.22S352.94,151.12,352.94,150.55Zm2.16,0c0-.42-.31-.64-.76-.77a.75.75,0,0,0-.61.72.65.65,0,0,0,.69.66A.62.62,0,0,0,355.1,150.51Zm-1.28-2c0,.33.28.53.67.64a.66.66,0,0,0,.5-.62.59.59,0,0,0-1.17,0Z"></path><path class="cls-3" d="M368,151a2.15,2.15,0,0,0,.43,0,1.54,1.54,0,0,0,.83-.32,1.49,1.49,0,0,0,.52-.9h0a1.12,1.12,0,0,1-.89.37,1.21,1.21,0,0,1-1.24-1.27,1.45,1.45,0,0,1,1.48-1.46c.94,0,1.45.75,1.45,1.74a2.52,2.52,0,0,1-.71,1.9,2.24,2.24,0,0,1-1.39.56,2.55,2.55,0,0,1-.47,0Zm.41-2.18a.67.67,0,0,0,.67.74.74.74,0,0,0,.66-.34.54.54,0,0,0,0-.22c0-.55-.2-1-.7-1S368.45,148.36,368.45,148.86Z"></path><path class="cls-3" d="M370.75,189a3,3,0,0,1-1.2.21,2.2,2.2,0,0,1-2.37-2.34,2.34,2.34,0,0,1,2.48-2.46,2.63,2.63,0,0,1,1.13.21l-.18.68a2.22,2.22,0,0,0-.91-.18,1.55,1.55,0,0,0-1.63,1.71,1.52,1.52,0,0,0,1.62,1.67,2.44,2.44,0,0,0,.92-.17Z"></path><rect class="cls-3" x="381.4" y="186.54" width="4.66" height="0.67"></rect><rect class="cls-3" x="352" y="185.83" width="4.66" height="0.67"></rect><rect class="cls-3" x="381.45" y="174.1" width="4.66" height="0.67"></rect><rect class="cls-3" x="352" y="187.42" width="4.66" height="0.67"></rect><rect class="cls-3" x="381.4" y="149.03" width="4.66" height="0.67"></rect><rect class="cls-3" x="381.4" y="186.54" width="4.66" height="0.67" transform="translate(570.61 -196.85) rotate(90)"></rect><rect class="cls-3" x="381.4" y="161.83" width="4.66" height="0.67" transform="translate(227.06 -223.84) rotate(45)"></rect><rect class="cls-3" x="381.4" y="161.83" width="4.66" height="0.67" transform="translate(769.73 5.49) rotate(135)"></rect><path class="cls-3" d="M384.4,147.61a.61.61,0,0,1-.61.62.62.62,0,1,1,0-1.23A.61.61,0,0,1,384.4,147.61Z"></path><circle class="cls-3" cx="383.79" cy="151.1" r="0.62"></circle><path class="cls-27" d="M360.68,128.75v-2.43l.35-.93a.75.75,0,0,1,.58.58v3.24l-.23.23Zm.7.92.23.23v3.24a.75.75,0,0,1-.58.58l-.35-.92v-2.43Z"></path><path class="cls-27" d="M363.69,133.72h-.93v-.92h.93Z"></path><path class="cls-27" d="M365.77,126.55v2.2l-.69.69-.23-.23v-3Zm-.92,6.36v-3l.23-.23.69.7v2.19Zm4,.81h-3.47a.74.74,0,0,1-.57-.58l.92-.34h2.78Zm0-7.4h-3.11l-.92-.35a.74.74,0,0,1,.58-.58h3.8Zm-.11,2.77.46.47-.46.46h-3l-.46-.46.46-.47Zm.69.58.23.23v3.24a.74.74,0,0,1-.58.58l-.34-.92v-2.43Z"></path><path class="cls-27" d="M371.78,126.55v2.2l-.69.69-.23-.23v-3Zm2.78-.23H371.8l-.93-.35a.75.75,0,0,1,.58-.58h3.46Zm.23,2.43v-2.43l.35-.93a.75.75,0,0,1,.58.58v3.24l-.23.23Zm.7.92.23.23v3.24a.75.75,0,0,1-.58.58l-.35-.92v-2.43Z"></path><path class="cls-27" d="M377.8,126.55v2.2l-.69.69-.24-.23v-3Zm-.93,6.36v-3l.24-.23.69.7v2.19Zm4.05.81h-3.47a.75.75,0,0,1-.58-.58l.93-.34h2.78Zm-.34-7.4h-2.77l-.92-.35a.74.74,0,0,1,.57-.58h3.46Zm.23,2.77.46.47-.46.46h-3l-.46-.46.46-.47Zm0-.34v-2.43l.34-.93a.75.75,0,0,1,.58.58v3.24l-.23.23Zm.69.92.23.23v3.24a.75.75,0,0,1-.58.58l-.34-.92v-2.43Z"></path><path class="cls-27" d="M386.94,133.72h-3.47a.75.75,0,0,1-.58-.58l.92-.34h2.78Zm-.35-7.4h-2.76l-.93-.35a.75.75,0,0,1,.58-.58h3.46Zm.23,2.77.46.47-.46.46h-3l-.46-.46.46-.47Zm0-.34v-2.43l.35-.93a.75.75,0,0,1,.58.58v3.24l-.24.23Zm.69.92.24.23v3.24a.75.75,0,0,1-.58.58l-.35-.92v-2.43Z"></path><g id="Gold_coins" data-name="Gold coins"><path class="cls-28" d="M107.14,101.24a20.33,20.33,0,0,1-20.32,20.33,20.69,20.69,0,0,1-3.81-.35,19.86,19.86,0,0,1-5.36-1.83c-.43-.21-.83-.44-1.24-.68A20.32,20.32,0,0,1,86.82,80.92a20.1,20.1,0,0,1,6.19,1,20.36,20.36,0,0,1,9.44,6.37c.3.36.59.73.86,1.11a20.24,20.24,0,0,1,3.83,11.88Z"></path><circle class="cls-29" cx="86.81" cy="101.24" r="16.02"></circle><circle class="cls-30" cx="86.41" cy="101.65" r="16.02"></circle><path class="cls-31" d="M102.45,88.25,99.6,91.59l-.38.44-20,23.35-.36.42-2.49,2.91a20.42,20.42,0,0,1-7.77-8.34l2.73-3.18.39-.46,17.78-20.8.35-.41L93,81.88A20.36,20.36,0,0,1,102.45,88.25Z"></path><path class="cls-31" d="M106,94.37l-3.38,3.95-.39.47L86.39,117.26l-.35.41-3,3.55a19.86,19.86,0,0,1-5.36-1.83l2.53-3,.37-.43L100,93.21l.38-.45,2.9-3.4A20.5,20.5,0,0,1,106,94.37Z"></path><path class="cls-32" d="M90.17,100.51H76.72V98.8h2.92a9.78,9.78,0,0,1,17.19-3.06l-3.09,2.19a6,6,0,0,0-4.83-2.44,5.54,5.54,0,0,0-5.12,3.31h6.38Zm6.74,6.13a9.78,9.78,0,0,1-17.3-3.07H76.72v-1.74H90.17v1.74H83.74A5.58,5.58,0,0,0,88.91,107a6,6,0,0,0,4.91-2.61Z"></path></g><rect class="cls-3" x="120.76" y="3.26" width="197.32" height="247.39"></rect><rect class="cls-33" x="130.9" y="60.02" width="177.36" height="9.82"></rect><rect class="cls-34" x="130.9" y="30.2" width="42.53" height="3.37"></rect><rect class="cls-35" x="130.9" y="159.47" width="177.05" height="3.37"></rect><rect class="cls-35" x="130.9" y="165.85" width="177.05" height="3.37"></rect><rect class="cls-35" x="130.9" y="172.22" width="177.05" height="3.37"></rect><rect class="cls-34" x="130.9" y="35.17" width="38.98" height="3.37"></rect><rect class="cls-34" x="130.9" y="40.14" width="47.64" height="3.37"></rect><rect class="cls-35" x="130.9" y="206.09" width="42.53" height="3.37"></rect><rect class="cls-35" x="130.9" y="211.06" width="38.98" height="3.37"></rect><rect class="cls-36" x="130.9" y="89" width="177.36" height="61.49"></rect><rect class="cls-35" x="130.9" y="216.03" width="47.64" height="3.37"></rect><rect class="cls-35" x="279.56" y="30.2" width="29.84" height="3.37"></rect><rect class="cls-35" x="270.42" y="35.17" width="38.98" height="3.37"></rect><rect class="cls-35" x="275.57" y="40.14" width="33.83" height="3.37"></rect><rect class="cls-34" x="130.9" y="45.11" width="42.53" height="3.37"></rect><rect class="cls-35" x="137.45" y="72.46" width="29.42" height="3.37"></rect><rect class="cls-35" x="196.35" y="72.46" width="34.83" height="3.37"></rect><rect class="cls-35" x="265.37" y="72.46" width="34.83" height="3.37"></rect><rect class="cls-33" x="138.77" y="104.47" width="78.29" height="3.37"></rect><rect class="cls-33" x="288.05" y="104.47" width="16.04" height="3.37"></rect><rect class="cls-33" x="284.63" y="110.84" width="19.47" height="3.37"></rect><rect class="cls-33" x="282.23" y="117.21" width="21.86" height="3.37"></rect><rect class="cls-33" x="282.23" y="145.24" width="21.86" height="3.37"></rect><rect class="cls-33" x="288.65" y="123.58" width="15.44" height="3.37"></rect><rect class="cls-33" x="138.77" y="110.84" width="74.75" height="3.37"></rect><rect class="cls-33" x="138.77" y="117.21" width="83.4" height="3.37"></rect><rect class="cls-33" x="138.77" y="123.58" width="78.29" height="3.37"></rect><rect class="cls-33" x="130.9" y="78.15" width="177.36" height="0.31"></rect><rect class="cls-33" x="126.74" y="73.99" width="8.62" height="0.31" transform="translate(205.2 -56.91) rotate(90)"></rect><rect class="cls-33" x="185.82" y="73.99" width="8.62" height="0.31" transform="translate(264.28 -115.99) rotate(90)"></rect><rect class="cls-33" x="253.16" y="73.99" width="8.62" height="0.31" transform="translate(331.61 -183.32) rotate(90)"></rect><rect class="cls-33" x="303.79" y="73.99" width="8.62" height="0.31" transform="translate(382.25 -233.96) rotate(90)"></rect><rect class="cls-33" x="130.9" y="89" width="177.36" height="9.82"></rect><rect class="cls-33" x="130.9" y="150.48" width="177.36" height="0.31"></rect><rect class="cls-33" x="130.9" y="143.06" width="177.36" height="0.31"></rect><rect class="cls-33" x="105.07" y="124.65" width="51.97" height="0.31" transform="translate(255.85 -6.25) rotate(90)"></rect><rect class="cls-33" x="231.48" y="124.65" width="51.97" height="0.31" transform="translate(382.27 -132.67) rotate(90)"></rect><rect class="cls-33" x="282.12" y="124.65" width="51.97" height="0.31" transform="translate(432.9 -183.3) rotate(90)"></rect><path class="cls-37" d="M308.26,211.22a7.9,7.9,0,0,1-.49,2.76,8.21,8.21,0,0,1-7.69,5.42h-39.6a8.2,8.2,0,0,1-7.41-4.73,8,8,0,0,1-.77-3.45,8.19,8.19,0,0,1,8.18-8.18h39.6A8.2,8.2,0,0,1,308.26,211.22Z"></path><path class="cls-3" d="M462.79,52.39h-.33c0-.07,0-.15,0-.22A13.16,13.16,0,0,0,437.69,46a7.09,7.09,0,0,0-9.24,3,7,7,0,0,0-3.43-.9,7.06,7.06,0,0,0-2.64,13.6A7.23,7.23,0,0,0,429.53,68h33.26A7.23,7.23,0,0,0,470,60.8V59.6A7.23,7.23,0,0,0,462.79,52.39Z"></path><path class="cls-3" d="M52.93,66.35H1a7.18,7.18,0,0,1,9.67-9.95A7.21,7.21,0,0,1,17,52.62a7.29,7.29,0,0,1,3.06.68,13.4,13.4,0,0,1,25.23,6.31v.22h.33A7.36,7.36,0,0,1,52.93,66.35Z"></path></g></g></svg> 